<svg aria-roledescription="flowchart-v2" role="graphics-document document" viewBox="-8 -8 1712.21875 195.5" style="max-width: 1712.22px; background-color: rgb(11, 18, 32);" xmlns:xlink="http://www.w3.org/1999/xlink" xmlns="http://www.w3.org/2000/svg" width="100%" id="my-svg"><style>#my-svg{font-family:"trebuchet ms",verdana,arial,sans-serif;font-size:16px;fill:#ccc;}#my-svg .error-icon{fill:#a44141;}#my-svg .error-text{fill:#ddd;stroke:#ddd;}#my-svg .edge-thickness-normal{stroke-width:2px;}#my-svg .edge-thickness-thick{stroke-width:3.5px;}#my-svg .edge-pattern-solid{stroke-dasharray:0;}#my-svg .edge-pattern-dashed{stroke-dasharray:3;}#my-svg .edge-pattern-dotted{stroke-dasharray:2;}#my-svg .marker{fill:lightgrey;stroke:lightgrey;}#my-svg .marker.cross{stroke:lightgrey;}#my-svg svg{font-family:"trebuchet ms",verdana,arial,sans-serif;font-size:16px;}#my-svg .label{font-family:"trebuchet ms",verdana,arial,sans-serif;color:#ccc;}#my-svg .cluster-label text{fill:#F9FFFE;}#my-svg .cluster-label span,#my-svg p{color:#F9FFFE;}#my-svg .label text,#my-svg span,#my-svg p{fill:#ccc;color:#ccc;}#my-svg .node rect,#my-svg .node circle,#my-svg .node ellipse,#my-svg .node polygon,#my-svg .node path{fill:#1f2020;stroke:#81B1DB;stroke-width:1px;}#my-svg .flowchart-label text{text-anchor:middle;}#my-svg .node .katex path{fill:#000;stroke:#000;stroke-width:1px;}#my-svg .node .label{text-align:center;}#my-svg .node.clickable{cursor:pointer;}#my-svg .arrowheadPath{fill:lightgrey;}#my-svg .edgePath .path{stroke:lightgrey;stroke-width:2.0px;}#my-svg .flowchart-link{stroke:lightgrey;fill:none;}#my-svg .edgeLabel{background-color:hsl(0, 0%, 34.4117647059%);text-align:center;}#my-svg .edgeLabel rect{opacity:0.5;background-color:hsl(0, 0%, 34.4117647059%);fill:hsl(0, 0%, 34.4117647059%);}#my-svg .labelBkg{background-color:rgba(87.75, 87.75, 87.75, 0.5);}#my-svg .cluster rect{fill:hsl(180, 1.5873015873%, 28.3529411765%);stroke:rgba(255, 255, 255, 0.25);stroke-width:1px;}#my-svg .cluster text{fill:#F9FFFE;}#my-svg .cluster span,#my-svg p{color:#F9FFFE;}#my-svg div.mermaidTooltip{position:absolute;text-align:center;max-width:200px;padding:2px;font-family:"trebuchet ms",verdana,arial,sans-serif;font-size:12px;background:hsl(20, 1.5873015873%, 12.3529411765%);border:1px solid rgba(255, 255, 255, 0.25);border-radius:2px;pointer-events:none;z-index:100;}#my-svg .flowchartTitleText{text-anchor:middle;font-size:18px;fill:#ccc;}#my-svg :root{--mermaid-font-family:"trebuchet ms",verdana,arial,sans-serif;}#my-svg .snap rect{fill:#0f172a!important;stroke:#38bdf8!important;color:#e2e8f0!important;}#my-svg .snap polygon{fill:#0f172a!important;stroke:#38bdf8!important;color:#e2e8f0!important;}#my-svg .snap ellipse{fill:#0f172a!important;stroke:#38bdf8!important;color:#e2e8f0!important;}#my-svg .snap circle{fill:#0f172a!important;stroke:#38bdf8!important;color:#e2e8f0!important;}#my-svg .snap path{fill:#0f172a!important;stroke:#38bdf8!important;color:#e2e8f0!important;}#my-svg .snap tspan{fill:#e2e8f0!important;}#my-svg .ev rect{fill:#1e293b!important;stroke:#64748b!important;color:#e2e8f0!important;}#my-svg .ev polygon{fill:#1e293b!important;stroke:#64748b!important;color:#e2e8f0!important;}#my-svg .ev ellipse{fill:#1e293b!important;stroke:#64748b!important;color:#e2e8f0!important;}#my-svg .ev circle{fill:#1e293b!important;stroke:#64748b!important;color:#e2e8f0!important;}#my-svg .ev path{fill:#1e293b!important;stroke:#64748b!important;color:#e2e8f0!important;}#my-svg .ev tspan{fill:#e2e8f0!important;}#my-svg .base rect{fill:#172554!important;stroke:#3b82f6!important;color:#dbeafe!important;}#my-svg .base polygon{fill:#172554!important;stroke:#3b82f6!important;color:#dbeafe!important;}#my-svg .base ellipse{fill:#172554!important;stroke:#3b82f6!important;color:#dbeafe!important;}#my-svg .base circle{fill:#172554!important;stroke:#3b82f6!important;color:#dbeafe!important;}#my-svg .base path{fill:#172554!important;stroke:#3b82f6!important;color:#dbeafe!important;}#my-svg .base tspan{fill:#dbeafe!important;}#my-svg .fork rect{fill:#422006!important;stroke:#f59e0b!important;color:#fef3c7!important;}#my-svg .fork polygon{fill:#422006!important;stroke:#f59e0b!important;color:#fef3c7!important;}#my-svg .fork ellipse{fill:#422006!important;stroke:#f59e0b!important;color:#fef3c7!important;}#my-svg .fork circle{fill:#422006!important;stroke:#f59e0b!important;color:#fef3c7!important;}#my-svg .fork path{fill:#422006!important;stroke:#f59e0b!important;color:#fef3c7!important;}#my-svg .fork tspan{fill:#fef3c7!important;}#my-svg .ovr rect{fill:#3b0764!important;stroke:#a855f7!important;color:#f3e8ff!important;}#my-svg .ovr polygon{fill:#3b0764!important;stroke:#a855f7!important;color:#f3e8ff!important;}#my-svg .ovr ellipse{fill:#3b0764!important;stroke:#a855f7!important;color:#f3e8ff!important;}#my-svg .ovr circle{fill:#3b0764!important;stroke:#a855f7!important;color:#f3e8ff!important;}#my-svg .ovr path{fill:#3b0764!important;stroke:#a855f7!important;color:#f3e8ff!important;}#my-svg .ovr tspan{fill:#f3e8ff!important;}</style><g><marker orient="auto" markerHeight="12" markerWidth="12" markerUnits="userSpaceOnUse" refY="5" refX="6" viewBox="0 0 10 10" class="marker flowchart" id="my-svg_flowchart-pointEnd"><path style="stroke-width: 1; stroke-dasharray: 1, 0;" class="arrowMarkerPath" d="M 0 0 L 10 5 L 0 10 z"/></marker><marker orient="auto" markerHeight="12" markerWidth="12" markerUnits="userSpaceOnUse" refY="5" refX="4.5" viewBox="0 0 10 10" class="marker flowchart" id="my-svg_flowchart-pointStart"><path style="stroke-width: 1; stroke-dasharray: 1, 0;" class="arrowMarkerPath" d="M 0 5 L 10 10 L 10 0 z"/></marker><marker orient="auto" markerHeight="11" markerWidth="11" markerUnits="userSpaceOnUse" refY="5" refX="11" viewBox="0 0 10 10" class="marker flowchart" id="my-svg_flowchart-circleEnd"><circle style="stroke-width: 1; stroke-dasharray: 1, 0;" class="arrowMarkerPath" r="5" cy="5" cx="5"/></marker><marker orient="auto" markerHeight="11" markerWidth="11" markerUnits="userSpaceOnUse" refY="5" refX="-1" viewBox="0 0 10 10" class="marker flowchart" id="my-svg_flowchart-circleStart"><circle style="stroke-width: 1; stroke-dasharray: 1, 0;" class="arrowMarkerPath" r="5" cy="5" cx="5"/></marker><marker orient="auto" markerHeight="11" markerWidth="11" markerUnits="userSpaceOnUse" refY="5.2" refX="12" viewBox="0 0 11 11" class="marker cross flowchart" id="my-svg_flowchart-crossEnd"><path style="stroke-width: 2; stroke-dasharray: 1, 0;" class="arrowMarkerPath" d="M 1,1 l 9,9 M 10,1 l -9,9"/></marker><marker orient="auto" markerHeight="11" markerWidth="11" markerUnits="userSpaceOnUse" refY="5.2" refX="-1" viewBox="0 0 11 11" class="marker cross flowchart" id="my-svg_flowchart-crossStart"><path style="stroke-width: 2; stroke-dasharray: 1, 0;" class="arrowMarkerPath" d="M 1,1 l 9,9 M 10,1 l -9,9"/></marker><g class="root"><g class="clusters"/><g class="edgePaths"><path marker-end="url(#my-svg_flowchart-pointEnd)" style="fill:none;" class="edge-thickness-normal edge-pattern-solid flowchart-link LS-B0 LE-B1" id="L-B0-B1-0" d="M90.656,39.75L100.742,39.75C110.828,39.75,131,39.75,150.289,39.75C169.577,39.75,187.982,39.75,197.185,39.75L206.388,39.75"/><path marker-end="url(#my-svg_flowchart-pointEnd)" style="fill:none;" class="edge-thickness-normal edge-pattern-solid flowchart-link LS-B1 LE-B2" id="L-B1-B2-0" d="M302.344,39.75L310.116,39.75C317.888,39.75,333.432,39.75,356.501,39.75C379.569,39.75,410.162,39.75,425.458,39.75L440.755,39.75"/><path marker-end="url(#my-svg_flowchart-pointEnd)" style="fill:none;" class="edge-thickness-normal edge-pattern-solid flowchart-link LS-B2 LE-B3" id="L-B2-B3-0" d="M536.711,35.846L557.696,34.038C578.681,32.23,620.651,28.615,661.982,26.808C703.313,25,744.004,25,784.847,25C825.69,25,866.685,25,899.242,25C931.798,25,955.917,25,967.977,25L980.036,25"/><path marker-end="url(#my-svg_flowchart-pointEnd)" style="fill:none;" class="edge-thickness-normal edge-pattern-solid flowchart-link LS-B3 LE-B4" id="L-B3-B4-0" d="M1075.992,25L1084.028,25C1092.064,25,1108.135,25,1123.273,25C1138.41,25,1152.614,25,1159.715,25L1166.817,25"/><path marker-end="url(#my-svg_flowchart-pointEnd)" style="fill:none;stroke-width:2px;stroke-dasharray:3;" class="edge-thickness-normal edge-pattern-dotted flowchart-link LS-B2 LE-F2" id="L-B2-F2-0" d="M536.711,50.338L557.696,55.24C578.681,60.142,620.651,69.946,653.383,79.082C686.114,88.218,709.607,96.685,721.353,100.919L733.1,105.153"/><path marker-end="url(#my-svg_flowchart-pointEnd)" style="fill:none;" class="edge-thickness-normal edge-pattern-solid flowchart-link LS-OVR LE-F2" id="L-OVR-F2-0" d="M587.156,138.5L599.734,138.5C612.311,138.5,637.466,138.5,661.744,137.086C686.022,135.672,709.423,132.845,721.124,131.431L732.824,130.017"/><path marker-end="url(#my-svg_flowchart-pointEnd)" style="fill:none;" class="edge-thickness-normal edge-pattern-solid flowchart-link LS-F2 LE-F3" id="L-F2-F3-0" d="M831.305,123.75L844.034,123.75C856.763,123.75,882.221,123.75,906.796,123.75C931.371,123.75,955.063,123.75,966.909,123.75L978.755,123.75"/><path marker-end="url(#my-svg_flowchart-pointEnd)" style="fill:none;" class="edge-thickness-normal edge-pattern-solid flowchart-link LS-F3 LE-F4" id="L-F3-F4-0" d="M1077.273,123.75L1085.096,123.75C1092.918,123.75,1108.563,123.75,1123.324,123.75C1138.085,123.75,1151.963,123.75,1158.902,123.75L1165.841,123.75"/><path marker-end="url(#my-svg_flowchart-pointEnd)" style="fill:none;" class="edge-thickness-normal edge-pattern-solid flowchart-link LS-B4 LE-BASE" id="L-B4-BASE-0" d="M1263.383,25L1267.712,25C1272.042,25,1280.701,25,1288.313,25C1295.926,25,1302.493,25,1305.776,25L1309.059,25"/><path marker-end="url(#my-svg_flowchart-pointEnd)" style="fill:none;" class="edge-thickness-normal edge-pattern-solid flowchart-link LS-F4 LE-FORKLOG" id="L-F4-FORKLOG-0" d="M1264.359,123.75L1268.526,123.75C1272.693,123.75,1281.026,123.75,1288.476,123.75C1295.926,123.75,1302.493,123.75,1305.776,123.75L1309.059,123.75"/><path marker-end="url(#my-svg_flowchart-pointEnd)" style="fill:none;" class="edge-thickness-normal edge-pattern-solid flowchart-link LS-BASE LE-CMP" id="L-BASE-CMP-0" d="M1416.758,25L1429.243,25C1441.729,25,1466.701,25,1491.75,30.283C1516.8,35.565,1541.929,46.131,1554.493,51.413L1567.057,56.696"/><path marker-end="url(#my-svg_flowchart-pointEnd)" style="fill:none;" class="edge-thickness-normal edge-pattern-solid flowchart-link LS-FORKLOG LE-CMP" id="L-FORKLOG-CMP-0" d="M1416.758,123.75L1429.243,123.75C1441.729,123.75,1466.701,123.75,1490.823,120.419C1514.945,117.088,1538.218,110.426,1549.854,107.094L1561.491,103.763"/></g><g class="edgeLabels"><g transform="translate(151.171875, 39.75)" class="edgeLabel"><g transform="translate(-35.515625, -17.5)" class="label"><rect height="35.655784606933594" width="71.57953643798828" ry="0" rx="0"/><text style=""><tspan class="row" x="0" dy="1em" xml:space="preserve">turn 1</tspan><tspan class="row" x="0" dy="1em" xml:space="preserve">(baseline)</tspan></text></g></g><g transform="translate(348.9765625, 39.75)" class="edgeLabel"><g transform="translate(-21.6328125, -9.5)" class="label"><rect height="19.655784606933594" width="43.53842544555664" ry="0" rx="0"/><text style=""><tspan class="row" x="0" dy="1em" xml:space="preserve">turn 2</tspan></text></g></g><g transform="translate(784.6953125, 25)" class="edgeLabel"><g transform="translate(-21.6328125, -9.5)" class="label"><rect height="19.655784606933594" width="43.53842544555664" ry="0" rx="0"/><text style=""><tspan class="row" x="0" dy="1em" xml:space="preserve">turn 3</tspan></text></g></g><g transform="translate(1124.20703125, 25)" class="edgeLabel"><g transform="translate(-21.93359375, -9.5)" class="label"><rect height="19.655784606933594" width="43.53842544555664" ry="0" rx="0"/><text style=""><tspan class="row" x="0" dy="1em" xml:space="preserve">turn 4</tspan></text></g></g><g transform="translate(662.62109375, 79.75)" class="edgeLabel"><g transform="translate(-50.46484375, -9.5)" class="label"><rect height="19.655784606933594" width="101.49324035644531" ry="0" rx="0"/><text style=""><tspan class="row" x="0" dy="1em" xml:space="preserve">snapshot copy</tspan></text></g></g><g class="edgeLabel"><g transform="translate(0, 0)" class="label"><rect height="0" width="0" ry="0" rx="0"/><text style=""><tspan class="row" x="0" dy="1em" xml:space="preserve"/></text></g></g><g transform="translate(907.6796875, 123.75)" class="edgeLabel"><g transform="translate(-51.375, -17.5)" class="label"><rect height="35.655784606933594" width="102.57862854003906" ry="0" rx="0"/><text style=""><tspan class="row" x="0" dy="1em" xml:space="preserve">turn 3 (replay,</tspan><tspan class="row" x="0" dy="1em" xml:space="preserve">same seed)</tspan></text></g></g><g transform="translate(1124.20703125, 123.75)" class="edgeLabel"><g transform="translate(-21.93359375, -9.5)" class="label"><rect height="19.655784606933594" width="43.53842544555664" ry="0" rx="0"/><text style=""><tspan class="row" x="0" dy="1em" xml:space="preserve">turn 4</tspan></text></g></g><g class="edgeLabel"><g transform="translate(0, 0)" class="label"><rect height="0" width="0" ry="0" rx="0"/><text style=""><tspan class="row" x="0" dy="1em" xml:space="preserve"/></text></g></g><g class="edgeLabel"><g transform="translate(0, 0)" class="label"><rect height="0" width="0" ry="0" rx="0"/><text style=""><tspan class="row" x="0" dy="1em" xml:space="preserve"/></text></g></g><g transform="translate(1491.671875, 25)" class="edgeLabel"><g transform="translate(-49.9140625, -17.5)" class="label"><rect height="35.655784606933594" width="99.64391326904297" ry="0" rx="0"/><text style=""><tspan class="row" x="0" dy="1em" xml:space="preserve">side-by-side</tspan><tspan class="row" x="0" dy="1em" xml:space="preserve">compare in UI</tspan></text></g></g><g class="edgeLabel"><g transform="translate(0, 0)" class="label"><rect height="0" width="0" ry="0" rx="0"/><text style=""><tspan class="row" x="0" dy="1em" xml:space="preserve"/></text></g></g></g><g class="nodes"><g transform="translate(45.328125, 39.75)" data-id="B0" data-node="true" id="flowchart-B0-0" class="node default snap flowchart-label"><rect height="34" width="90.65625" y="-17" x="-45.328125" ry="0" rx="0" style="" class="basic label-container"/><g transform="translate(0, -9.5)" style="" class="label"><rect/><text style=""><tspan class="row" x="0" dy="1em" xml:space="preserve">state @ T0</tspan></text></g></g><g transform="translate(257.015625, 39.75)" data-id="B1" data-node="true" id="flowchart-B1-1" class="node default snap flowchart-label"><rect height="34" width="90.65625" y="-17" x="-45.328125" ry="0" rx="0" style="" class="basic label-container"/><g transform="translate(0, -9.5)" style="" class="label"><rect/><text style=""><tspan class="row" x="0" dy="1em" xml:space="preserve">state @ T1</tspan></text></g></g><g transform="translate(491.3828125, 39.75)" data-id="B2" data-node="true" id="flowchart-B2-2" class="node default snap flowchart-label"><rect height="34" width="90.65625" y="-17" x="-45.328125" ry="0" rx="0" style="" class="basic label-container"/><g transform="translate(0, -9.5)" style="" class="label"><rect/><text style=""><tspan class="row" x="0" dy="1em" xml:space="preserve">state @ T2</tspan></text></g></g><g transform="translate(1030.6640625, 25)" data-id="B3" data-node="true" id="flowchart-B3-3" class="node default snap flowchart-label"><rect height="34" width="90.65625" y="-17" x="-45.328125" ry="0" rx="0" style="" class="basic label-container"/><g transform="translate(0, -9.5)" style="" class="label"><rect/><text style=""><tspan class="row" x="0" dy="1em" xml:space="preserve">state @ T3</tspan></text></g></g><g transform="translate(1217.75, 25)" data-id="B4" data-node="true" id="flowchart-B4-4" class="node default snap flowchart-label"><rect height="34" width="91.265625" y="-17" x="-45.6328125" ry="0" rx="0" style="" class="basic label-container"/><g transform="translate(0, -9.5)" style="" class="label"><rect/><text style=""><tspan class="row" x="0" dy="1em" xml:space="preserve">state @ T4</tspan></text></g></g><g transform="translate(491.3828125, 138.5)" data-id="OVR" data-node="true" id="flowchart-OVR-13" class="node default ovr flowchart-label"><rect height="82" width="191.546875" y="-41" x="-95.7734375" ry="0" rx="0" style="" class="basic label-container"/><g transform="translate(0, -33.5)" style="" class="label"><rect/><text style=""><tspan class="row" x="0" dy="1em" xml:space="preserve">FORK_FROM</tspan><tspan class="row" x="0" dy="1em" xml:space="preserve">fromTurn=2</tspan><tspan class="row" x="0" dy="1em" xml:space="preserve">override = force-actions</tspan><tspan class="row" x="0" dy="1em" xml:space="preserve">(USA pre-emptive strike)</tspan></text></g></g><g transform="translate(784.6953125, 123.75)" data-id="F2" data-node="true" id="flowchart-F2-15" class="node default fork flowchart-label"><rect height="34" width="93.21875" y="-17" x="-46.609375" ry="0" rx="0" style="" class="basic label-container"/><g transform="translate(0, -9.5)" style="" class="label"><rect/><text style=""><tspan class="row" x="0" dy="1em" xml:space="preserve">state @ T2'</tspan></text></g></g><g transform="translate(1030.6640625, 123.75)" data-id="F3" data-node="true" id="flowchart-F3-19" class="node default fork flowchart-label"><rect height="34" width="93.21875" y="-17" x="-46.609375" ry="0" rx="0" style="" class="basic label-container"/><g transform="translate(0, -9.5)" style="" class="label"><rect/><text style=""><tspan class="row" x="0" dy="1em" xml:space="preserve">state @ T3'</tspan></text></g></g><g transform="translate(1217.75, 123.75)" data-id="F4" data-node="true" id="flowchart-F4-20" class="node default fork flowchart-label"><rect height="34" width="93.21875" y="-17" x="-46.609375" ry="0" rx="0" style="" class="basic label-container"/><g transform="translate(0, -9.5)" style="" class="label"><rect/><text style=""><tspan class="row" x="0" dy="1em" xml:space="preserve">state @ T4'</tspan></text></g></g><g transform="translate(1365.55859375, 25)" data-id="BASE" data-node="true" id="flowchart-BASE-25" class="node default base flowchart-label"><rect height="50" width="102.3984375" y="-25" x="-51.19921875" ry="0" rx="0" style="" class="basic label-container"/><g transform="translate(0, -17.5)" style="" class="label"><rect/><text style=""><tspan class="row" x="0" dy="1em" xml:space="preserve">events.jsonl</tspan><tspan class="row" x="0" dy="1em" xml:space="preserve">(baseline)</tspan></text></g></g><g transform="translate(1365.55859375, 123.75)" data-id="FORKLOG" data-node="true" id="flowchart-FORKLOG-26" class="node default fork flowchart-label"><rect height="50" width="102.3984375" y="-25" x="-51.19921875" ry="0" rx="0" style="" class="basic label-container"/><g transform="translate(0, -17.5)" style="" class="label"><rect/><text style=""><tspan class="row" x="0" dy="1em" xml:space="preserve">events.jsonl</tspan><tspan class="row" x="0" dy="1em" xml:space="preserve">(fork)</tspan></text></g></g><g transform="translate(1631.40234375, 83.75)" data-id="CMP" data-node="true" id="flowchart-CMP-32" class="node default ev flowchart-label"><rect height="50" width="129.6328125" y="-25" x="-64.81640625" ry="0" rx="0" style="" class="basic label-container"/><g transform="translate(0, -17.5)" style="" class="label"><rect/><text style=""><tspan class="row" x="0" dy="1em" xml:space="preserve">UI replay:</tspan><tspan class="row" x="0" dy="1em" xml:space="preserve">baseline ↔ fork</tspan></text></g></g></g></g></g></svg>