<svg aria-roledescription="flowchart-v2" role="graphics-document document" viewBox="-8 -8 1284.146484375 1493.5411376953125" style="max-width: 1284.15px; background-color: rgb(11, 18, 32);" xmlns:xlink="http://www.w3.org/1999/xlink" xmlns="http://www.w3.org/2000/svg" width="100%" id="my-svg"><style>#my-svg{font-family:"trebuchet ms",verdana,arial,sans-serif;font-size:16px;fill:#ccc;}#my-svg .error-icon{fill:#a44141;}#my-svg .error-text{fill:#ddd;stroke:#ddd;}#my-svg .edge-thickness-normal{stroke-width:2px;}#my-svg .edge-thickness-thick{stroke-width:3.5px;}#my-svg .edge-pattern-solid{stroke-dasharray:0;}#my-svg .edge-pattern-dashed{stroke-dasharray:3;}#my-svg .edge-pattern-dotted{stroke-dasharray:2;}#my-svg .marker{fill:lightgrey;stroke:lightgrey;}#my-svg .marker.cross{stroke:lightgrey;}#my-svg svg{font-family:"trebuchet ms",verdana,arial,sans-serif;font-size:16px;}#my-svg .label{font-family:"trebuchet ms",verdana,arial,sans-serif;color:#ccc;}#my-svg .cluster-label text{fill:#F9FFFE;}#my-svg .cluster-label span,#my-svg p{color:#F9FFFE;}#my-svg .label text,#my-svg span,#my-svg p{fill:#ccc;color:#ccc;}#my-svg .node rect,#my-svg .node circle,#my-svg .node ellipse,#my-svg .node polygon,#my-svg .node path{fill:#1f2020;stroke:#81B1DB;stroke-width:1px;}#my-svg .flowchart-label text{text-anchor:middle;}#my-svg .node .katex path{fill:#000;stroke:#000;stroke-width:1px;}#my-svg .node .label{text-align:center;}#my-svg .node.clickable{cursor:pointer;}#my-svg .arrowheadPath{fill:lightgrey;}#my-svg .edgePath .path{stroke:lightgrey;stroke-width:2.0px;}#my-svg .flowchart-link{stroke:lightgrey;fill:none;}#my-svg .edgeLabel{background-color:hsl(0, 0%, 34.4117647059%);text-align:center;}#my-svg .edgeLabel rect{opacity:0.5;background-color:hsl(0, 0%, 34.4117647059%);fill:hsl(0, 0%, 34.4117647059%);}#my-svg .labelBkg{background-color:rgba(87.75, 87.75, 87.75, 0.5);}#my-svg .cluster rect{fill:hsl(180, 1.5873015873%, 28.3529411765%);stroke:rgba(255, 255, 255, 0.25);stroke-width:1px;}#my-svg .cluster text{fill:#F9FFFE;}#my-svg .cluster span,#my-svg p{color:#F9FFFE;}#my-svg div.mermaidTooltip{position:absolute;text-align:center;max-width:200px;padding:2px;font-family:"trebuchet ms",verdana,arial,sans-serif;font-size:12px;background:hsl(20, 1.5873015873%, 12.3529411765%);border:1px solid rgba(255, 255, 255, 0.25);border-radius:2px;pointer-events:none;z-index:100;}#my-svg .flowchartTitleText{text-anchor:middle;font-size:18px;fill:#ccc;}#my-svg :root{--mermaid-font-family:"trebuchet ms",verdana,arial,sans-serif;}#my-svg .scen rect{fill:#1e293b!important;stroke:#64748b!important;color:#e2e8f0!important;}#my-svg .scen polygon{fill:#1e293b!important;stroke:#64748b!important;color:#e2e8f0!important;}#my-svg .scen ellipse{fill:#1e293b!important;stroke:#64748b!important;color:#e2e8f0!important;}#my-svg .scen circle{fill:#1e293b!important;stroke:#64748b!important;color:#e2e8f0!important;}#my-svg .scen path{fill:#1e293b!important;stroke:#64748b!important;color:#e2e8f0!important;}#my-svg .scen tspan{fill:#e2e8f0!important;}#my-svg .world rect{fill:#0f172a!important;stroke:#38bdf8!important;color:#e2e8f0!important;stroke-width:2px!important;}#my-svg .world polygon{fill:#0f172a!important;stroke:#38bdf8!important;color:#e2e8f0!important;stroke-width:2px!important;}#my-svg .world ellipse{fill:#0f172a!important;stroke:#38bdf8!important;color:#e2e8f0!important;stroke-width:2px!important;}#my-svg .world circle{fill:#0f172a!important;stroke:#38bdf8!important;color:#e2e8f0!important;stroke-width:2px!important;}#my-svg .world path{fill:#0f172a!important;stroke:#38bdf8!important;color:#e2e8f0!important;stroke-width:2px!important;}#my-svg .world tspan{fill:#e2e8f0!important;}#my-svg .player rect{fill:#172554!important;stroke:#3b82f6!important;color:#dbeafe!important;}#my-svg .player polygon{fill:#172554!important;stroke:#3b82f6!important;color:#dbeafe!important;}#my-svg .player ellipse{fill:#172554!important;stroke:#3b82f6!important;color:#dbeafe!important;}#my-svg .player circle{fill:#172554!important;stroke:#3b82f6!important;color:#dbeafe!important;}#my-svg .player path{fill:#172554!important;stroke:#3b82f6!important;color:#dbeafe!important;}#my-svg .player tspan{fill:#dbeafe!important;}#my-svg .adj rect{fill:#3b0764!important;stroke:#a855f7!important;color:#f3e8ff!important;}#my-svg .adj polygon{fill:#3b0764!important;stroke:#a855f7!important;color:#f3e8ff!important;}#my-svg .adj ellipse{fill:#3b0764!important;stroke:#a855f7!important;color:#f3e8ff!important;}#my-svg .adj circle{fill:#3b0764!important;stroke:#a855f7!important;color:#f3e8ff!important;}#my-svg .adj path{fill:#3b0764!important;stroke:#a855f7!important;color:#f3e8ff!important;}#my-svg .adj tspan{fill:#f3e8ff!important;}#my-svg .rng rect{fill:#422006!important;stroke:#f59e0b!important;color:#fef3c7!important;}#my-svg .rng polygon{fill:#422006!important;stroke:#f59e0b!important;color:#fef3c7!important;}#my-svg .rng ellipse{fill:#422006!important;stroke:#f59e0b!important;color:#fef3c7!important;}#my-svg .rng circle{fill:#422006!important;stroke:#f59e0b!important;color:#fef3c7!important;}#my-svg .rng path{fill:#422006!important;stroke:#f59e0b!important;color:#fef3c7!important;}#my-svg .rng tspan{fill:#fef3c7!important;}#my-svg .io rect{fill:#052e16!important;stroke:#22c55e!important;color:#dcfce7!important;}#my-svg .io polygon{fill:#052e16!important;stroke:#22c55e!important;color:#dcfce7!important;}#my-svg .io ellipse{fill:#052e16!important;stroke:#22c55e!important;color:#dcfce7!important;}#my-svg .io circle{fill:#052e16!important;stroke:#22c55e!important;color:#dcfce7!important;}#my-svg .io path{fill:#052e16!important;stroke:#22c55e!important;color:#dcfce7!important;}#my-svg .io tspan{fill:#dcfce7!important;}#my-svg .log rect{fill:#020617!important;stroke:#94a3b8!important;color:#e2e8f0!important;stroke-dasharray:4 3!important;}#my-svg .log polygon{fill:#020617!important;stroke:#94a3b8!important;color:#e2e8f0!important;stroke-dasharray:4 3!important;}#my-svg .log ellipse{fill:#020617!important;stroke:#94a3b8!important;color:#e2e8f0!important;stroke-dasharray:4 3!important;}#my-svg .log circle{fill:#020617!important;stroke:#94a3b8!important;color:#e2e8f0!important;stroke-dasharray:4 3!important;}#my-svg .log path{fill:#020617!important;stroke:#94a3b8!important;color:#e2e8f0!important;stroke-dasharray:4 3!important;}#my-svg .log tspan{fill:#e2e8f0!important;}#my-svg .ui rect{fill:#1e1b4b!important;stroke:#818cf8!important;color:#e0e7ff!important;}#my-svg .ui polygon{fill:#1e1b4b!important;stroke:#818cf8!important;color:#e0e7ff!important;}#my-svg .ui ellipse{fill:#1e1b4b!important;stroke:#818cf8!important;color:#e0e7ff!important;}#my-svg .ui circle{fill:#1e1b4b!important;stroke:#818cf8!important;color:#e0e7ff!important;}#my-svg .ui path{fill:#1e1b4b!important;stroke:#818cf8!important;color:#e0e7ff!important;}#my-svg .ui tspan{fill:#e0e7ff!important;}</style><g><marker orient="auto" markerHeight="12" markerWidth="12" markerUnits="userSpaceOnUse" refY="5" refX="6" viewBox="0 0 10 10" class="marker flowchart" id="my-svg_flowchart-pointEnd"><path style="stroke-width: 1; stroke-dasharray: 1, 0;" class="arrowMarkerPath" d="M 0 0 L 10 5 L 0 10 z"/></marker><marker orient="auto" markerHeight="12" markerWidth="12" markerUnits="userSpaceOnUse" refY="5" refX="4.5" viewBox="0 0 10 10" class="marker flowchart" id="my-svg_flowchart-pointStart"><path style="stroke-width: 1; stroke-dasharray: 1, 0;" class="arrowMarkerPath" d="M 0 5 L 10 10 L 10 0 z"/></marker><marker orient="auto" markerHeight="11" markerWidth="11" markerUnits="userSpaceOnUse" refY="5" refX="11" viewBox="0 0 10 10" class="marker flowchart" id="my-svg_flowchart-circleEnd"><circle style="stroke-width: 1; stroke-dasharray: 1, 0;" class="arrowMarkerPath" r="5" cy="5" cx="5"/></marker><marker orient="auto" markerHeight="11" markerWidth="11" markerUnits="userSpaceOnUse" refY="5" refX="-1" viewBox="0 0 10 10" class="marker flowchart" id="my-svg_flowchart-circleStart"><circle style="stroke-width: 1; stroke-dasharray: 1, 0;" class="arrowMarkerPath" r="5" cy="5" cx="5"/></marker><marker orient="auto" markerHeight="11" markerWidth="11" markerUnits="userSpaceOnUse" refY="5.2" refX="12" viewBox="0 0 11 11" class="marker cross flowchart" id="my-svg_flowchart-crossEnd"><path style="stroke-width: 2; stroke-dasharray: 1, 0;" class="arrowMarkerPath" d="M 1,1 l 9,9 M 10,1 l -9,9"/></marker><marker orient="auto" markerHeight="11" markerWidth="11" markerUnits="userSpaceOnUse" refY="5.2" refX="-1" viewBox="0 0 11 11" class="marker cross flowchart" id="my-svg_flowchart-crossStart"><path style="stroke-width: 2; stroke-dasharray: 1, 0;" class="arrowMarkerPath" d="M 1,1 l 9,9 M 10,1 l -9,9"/></marker><g class="root"><g class="clusters"/><g class="edgePaths"><path marker-end="url(#my-svg_flowchart-pointEnd)" style="fill:none;" class="edge-thickness-normal edge-pattern-solid flowchart-link LS-SCEN LE-W" id="L-SCEN-W-0" d="M401.469,677L401.469,682.75C401.469,688.5,401.469,700,389.804,711.13C378.139,722.26,354.809,733.02,343.144,738.4L331.48,743.78"/><path marker-end="url(#my-svg_flowchart-pointEnd)" style="fill:none;stroke-width:2px;stroke-dasharray:3;" class="edge-thickness-normal edge-pattern-dotted flowchart-link LS-W LE-ADJ" id="L-W-ADJ-0" d="M240.279,746L237.693,740.25C235.108,734.5,229.937,723,227.351,707.333C224.766,691.667,224.766,671.833,224.766,652C224.766,632.167,224.766,612.333,224.766,591.167C224.766,570,224.766,547.5,224.766,525C224.766,502.5,224.766,480,325.716,459.244C426.666,438.488,628.567,419.476,729.517,409.97L830.467,400.464"/><path marker-end="url(#my-svg_flowchart-pointEnd)" style="fill:none;" class="edge-thickness-normal edge-pattern-solid flowchart-link LS-ADJ LE-RNG" id="L-ADJ-RNG-0" d="M1026.545,423L1026.545,428.75C1026.545,434.5,1026.545,446,1026.545,456.617C1026.545,467.233,1026.545,476.967,1026.545,481.833L1026.545,486.7"/><path marker-end="url(#my-svg_flowchart-pointEnd)" style="fill:none;" class="edge-thickness-normal edge-pattern-solid flowchart-link LS-RNG LE-APPLY" id="L-RNG-APPLY-0" d="M989.393,558L982.92,563.75C976.446,569.5,963.5,581,957.026,592.95C950.553,604.9,950.553,617.3,950.553,623.5L950.553,629.7"/><path marker-end="url(#my-svg_flowchart-pointEnd)" style="fill:none;" class="edge-thickness-normal edge-pattern-solid flowchart-link LS-APPLY LE-W" id="L-APPLY-W-0" d="M823.568,663.853L738.493,671.794C653.418,679.735,483.268,695.618,393.827,708.639C304.387,721.66,295.657,731.82,291.292,736.9L286.927,741.98"/><path marker-end="url(#my-svg_flowchart-pointEnd)" style="fill:none;" class="edge-thickness-normal edge-pattern-solid flowchart-link LS-APPLY LE-BRIEF" id="L-APPLY-BRIEF-0" d="M939.599,669L935.035,676.083C930.471,683.167,921.343,697.333,904.408,711.081C887.474,724.829,862.733,738.158,850.362,744.822L837.991,751.486"/><path marker-end="url(#my-svg_flowchart-pointEnd)" style="fill:none;stroke-width:2px;stroke-dasharray:3;" class="edge-thickness-normal edge-pattern-dotted flowchart-link LS-ADJ LE-LOG" id="L-ADJ-LOG-0" d="M1120.093,423L1133.213,428.75C1146.332,434.5,1172.571,446,1185.691,463C1198.811,480,1198.811,502.5,1198.811,525C1198.811,547.5,1198.811,570,1198.811,591.167C1198.811,612.333,1198.811,632.167,1198.811,652C1198.811,671.833,1198.811,691.667,1198.811,712.833C1198.811,734,1198.811,756.5,1198.811,779C1198.811,801.5,1198.811,824,1189.833,840.998C1180.855,857.997,1162.899,869.493,1153.921,875.241L1144.943,880.99"/><path marker-end="url(#my-svg_flowchart-pointEnd)" style="fill:none;stroke-width:2px;stroke-dasharray:3;" class="edge-thickness-normal edge-pattern-dotted flowchart-link LS-RNG LE-LOG" id="L-RNG-LOG-0" d="M1063.697,558L1070.17,563.75C1076.643,569.5,1089.59,581,1096.064,596.667C1102.537,612.333,1102.537,632.167,1102.537,652C1102.537,671.833,1102.537,691.667,1102.537,712.833C1102.537,734,1102.537,756.5,1102.537,779C1102.537,801.5,1102.537,824,1098.244,840.432C1093.952,856.863,1085.366,867.227,1081.074,872.408L1076.781,877.59"/><path marker-end="url(#my-svg_flowchart-pointEnd)" style="fill:none;stroke-width:2px;stroke-dasharray:3;" class="edge-thickness-normal edge-pattern-dotted flowchart-link LS-APPLY LE-LOG" id="L-APPLY-LOG-0" d="M982.495,669L995.804,676.083C1009.113,683.167,1035.731,697.333,1049.04,715.667C1062.35,734,1062.35,756.5,1062.35,779C1062.35,801.5,1062.35,824,1059.912,840.244C1057.474,856.487,1052.599,866.475,1050.161,871.468L1047.724,876.462"/><path marker-end="url(#my-svg_flowchart-pointEnd)" style="fill:none;stroke-width:2px;stroke-dasharray:3;" class="edge-thickness-normal edge-pattern-dotted flowchart-link LS-BRIEF LE-LOG" id="L-BRIEF-LOG-0" d="M786.92,804L786.92,811.083C786.92,818.167,786.92,832.333,797.249,845.36C807.579,858.388,828.238,870.275,838.568,876.219L848.897,882.163"/><path marker-end="url(#my-svg_flowchart-pointEnd)" style="fill:none;" class="edge-thickness-normal edge-pattern-solid flowchart-link LS-W LE-PLAYERS" id="L-W-PLAYERS-0" d="M221.561,746L215.715,740.25C209.868,734.5,198.174,723,192.327,707.333C186.48,691.667,186.48,671.833,186.48,652C186.48,632.167,186.48,612.333,186.48,591.167C186.48,570,186.48,547.5,186.48,525C186.48,502.5,186.48,480,186.48,456.167C186.48,432.333,186.48,407.167,186.48,382C186.48,356.833,186.48,331.667,230.412,302.648C274.343,273.629,362.206,240.758,406.138,224.323L450.069,207.887"/><path marker-end="url(#my-svg_flowchart-pointEnd)" style="fill:none;" class="edge-thickness-normal edge-pattern-solid flowchart-link LS-PLAYERS LE-ADJ" id="L-PLAYERS-ADJ-0" d="M829.408,219.043L862.264,233.619C895.12,248.195,960.833,277.348,993.689,296.791C1026.545,316.233,1026.545,325.967,1026.545,330.833L1026.545,335.7"/><path marker-end="url(#my-svg_flowchart-pointEnd)" style="fill:none;stroke-width:2px;stroke-dasharray:3;" class="edge-thickness-normal edge-pattern-dotted flowchart-link LS-BRIEF LE-PLAYERS" id="L-BRIEF-PLAYERS-0" d="M764.492,754L758.137,746.917C751.782,739.833,739.073,725.667,732.718,708.667C726.363,691.667,726.363,671.833,726.363,652C726.363,632.167,726.363,612.333,726.363,591.167C726.363,570,726.363,547.5,726.363,525C726.363,502.5,726.363,480,726.363,456.167C726.363,432.333,726.363,407.167,726.363,382C726.363,356.833,726.363,331.667,723.917,314.125C721.47,296.584,716.576,286.668,714.13,281.711L711.683,276.753"/><path marker-end="url(#my-svg_flowchart-pointEnd)" style="fill:none;stroke-width:2px;stroke-dasharray:3;" class="edge-thickness-normal edge-pattern-dotted flowchart-link LS-PLAYERS LE-LOG" id="L-PLAYERS-LOG-0" d="M607.379,272L605.906,277.75C604.433,283.5,601.487,295,600.014,313.333C598.541,331.667,598.541,356.833,598.541,382C598.541,407.167,598.541,432.333,598.541,456.167C598.541,480,598.541,502.5,598.541,525C598.541,547.5,598.541,570,598.541,591.167C598.541,612.333,598.541,632.167,598.541,652C598.541,671.833,598.541,691.667,598.541,712.833C598.541,734,598.541,756.5,598.541,779C598.541,801.5,598.541,824,622.059,841.81C645.578,859.619,692.614,872.738,716.132,879.298L739.651,885.857"/><path marker-end="url(#my-svg_flowchart-pointEnd)" style="fill:none;" class="edge-thickness-normal edge-pattern-solid flowchart-link LS-LOG LE-CONSUMERS" id="L-LOG-CONSUMERS-0" d="M1006.451,1039.541L1006.451,1043.708C1006.451,1047.874,1006.451,1056.208,1006.451,1063.658C1006.451,1071.108,1006.451,1077.674,1006.451,1080.958L1006.451,1084.241"/></g><g class="edgeLabels"><g class="edgeLabel"><g transform="translate(0, 0)" class="label"><rect height="0" width="0" ry="0" rx="0"/><text style=""><tspan class="row" x="0" dy="1em" xml:space="preserve"/></text></g></g><g transform="translate(224.765625, 592.5)" class="edgeLabel"><g transform="translate(-18.28515625, -9.5)" class="label"><rect height="18.01759910583496" width="37.346649169921875" ry="0" rx="0"/><text style=""><tspan class="row" x="0" dy="1em" xml:space="preserve">state</tspan></text></g></g><g transform="translate(1026.544921875, 457.5)" class="edgeLabel"><g transform="translate(-44.5859375, -9.5)" class="label"><rect height="18.01759910583496" width="89.0130844116211" ry="0" rx="0"/><text style=""><tspan class="row" x="0" dy="1em" xml:space="preserve">candidates[]</tspan></text></g></g><g transform="translate(950.552734375, 592.5)" class="edgeLabel"><g transform="translate(-30.28125, -9.5)" class="label"><rect height="18.01759910583496" width="60.45109176635742" ry="0" rx="0"/><text style=""><tspan class="row" x="0" dy="1em" xml:space="preserve">selected</tspan></text></g></g><g transform="translate(313.1171875, 711.5)" class="edgeLabel"><g transform="translate(-40.703125, -9.5)" class="label"><rect height="18.01759910583496" width="81.97960662841797" ry="0" rx="0"/><text style=""><tspan class="row" x="0" dy="1em" xml:space="preserve">WorldState'</tspan></text></g></g><g class="edgeLabel"><g transform="translate(0, 0)" class="label"><rect height="0" width="0" ry="0" rx="0"/><text style=""><tspan class="row" x="0" dy="1em" xml:space="preserve"/></text></g></g><g transform="translate(1198.810546875, 652)" class="edgeLabel"><g transform="translate(-20.1875, -9.5)" class="label"><rect height="18.01759910583496" width="40.51960372924805" ry="0" rx="0"/><text style=""><tspan class="row" x="0" dy="1em" xml:space="preserve">event</tspan></text></g></g><g transform="translate(1102.537109375, 711.5)" class="edgeLabel"><g transform="translate(-20.1875, -9.5)" class="label"><rect height="18.01759910583496" width="40.51960372924805" ry="0" rx="0"/><text style=""><tspan class="row" x="0" dy="1em" xml:space="preserve">event</tspan></text></g></g><g transform="translate(1062.349609375, 779)" class="edgeLabel"><g transform="translate(-20.1875, -9.5)" class="label"><rect height="18.01759910583496" width="40.51960372924805" ry="0" rx="0"/><text style=""><tspan class="row" x="0" dy="1em" xml:space="preserve">event</tspan></text></g></g><g transform="translate(786.919921875, 846.5)" class="edgeLabel"><g transform="translate(-20.1875, -9.5)" class="label"><rect height="18.01759910583496" width="40.51960372924805" ry="0" rx="0"/><text style=""><tspan class="row" x="0" dy="1em" xml:space="preserve">event</tspan></text></g></g><g transform="translate(186.48046875, 525)" class="edgeLabel"><g transform="translate(-18.28515625, -9.5)" class="label"><rect height="18.01759910583496" width="37.346649169921875" ry="0" rx="0"/><text style=""><tspan class="row" x="0" dy="1em" xml:space="preserve">state</tspan></text></g></g><g transform="translate(1026.544921875, 306.5)" class="edgeLabel"><g transform="translate(-67.02734375, -9.5)" class="label"><rect height="18.01759910583496" width="134.6491241455078" ry="0" rx="0"/><text style=""><tspan class="row" x="0" dy="1em" xml:space="preserve">actions + rationale</tspan></text></g></g><g transform="translate(726.36328125, 525)" class="edgeLabel"><g transform="translate(-67.359375, -9.5)" class="label"><rect height="18.01759910583496" width="134.55474853515625" ry="0" rx="0"/><text style=""><tspan class="row" x="0" dy="1em" xml:space="preserve">next-turn briefings</tspan></text></g></g><g transform="translate(598.541015625, 592.5)" class="edgeLabel"><g transform="translate(-20.1875, -9.5)" class="label"><rect height="18.01759910583496" width="40.51960372924805" ry="0" rx="0"/><text style=""><tspan class="row" x="0" dy="1em" xml:space="preserve">event</tspan></text></g></g><g class="edgeLabel"><g transform="translate(0, 0)" class="label"><rect height="0" width="0" ry="0" rx="0"/><text style=""><tspan class="row" x="0" dy="1em" xml:space="preserve"/></text></g></g></g><g class="nodes"><g transform="translate(903.724609375, 1081.5411224365234)" class="root"><g class="clusters"><g id="CONSUMERS" class="cluster default flowchart-label"><rect height="388" width="252.296875" y="8" x="-22.921875" ry="0" rx="0" style=""/><g transform="translate(103.2265625, 8)" class="cluster-label"><text style=""><tspan class="row" x="0" dy="1em" xml:space="preserve">Consumers (post-hoc, no LLM calls)</tspan></text></g></g></g><g class="edgePaths"/><g class="edgeLabels"/><g class="nodes"><g transform="translate(103.2265625, 68)" data-id="UI" data-node="true" id="flowchart-UI-10" class="node default ui flowchart-label"><rect height="50" width="140.453125" y="-25" x="-70.2265625" ry="0" rx="0" style="" class="basic label-container"/><g transform="translate(0, -17.5)" style="" class="label"><rect/><text style=""><tspan class="row" x="0" dy="1em" xml:space="preserve">React replay</tspan><tspan class="row" x="0" dy="1em" xml:space="preserve">(baseline ↔ fork)</tspan></text></g></g><g transform="translate(103.2265625, 160)" data-id="INSP" data-node="true" id="flowchart-INSP-11" class="node default ui flowchart-label"><rect height="34" width="93.640625" y="-17" x="-46.8203125" ry="0" rx="0" style="" class="basic label-container"/><g transform="translate(0, -9.5)" style="" class="label"><rect/><text style=""><tspan class="row" x="0" dy="1em" xml:space="preserve">CLI inspect</tspan></text></g></g><g transform="translate(103.2265625, 244)" data-id="FORK" data-node="true" id="flowchart-FORK-12" class="node default ui flowchart-label"><rect height="34" width="112.1953125" y="-17" x="-56.09765625" ry="0" rx="0" style="" class="basic label-container"/><g transform="translate(0, -9.5)" style="" class="label"><rect/><text style=""><tspan class="row" x="0" dy="1em" xml:space="preserve">Fork &amp; replay</tspan></text></g></g><g transform="translate(103.2265625, 336)" data-id="MC" data-node="true" id="flowchart-MC-13" class="node default ui flowchart-label"><rect height="50" width="101.484375" y="-25" x="-50.7421875" ry="0" rx="0" style="" class="basic label-container"/><g transform="translate(0, -17.5)" style="" class="label"><rect/><text style=""><tspan class="row" x="0" dy="1em" xml:space="preserve">Monte Carlo</tspan><tspan class="row" x="0" dy="1em" xml:space="preserve">(see §2)</tspan></text></g></g></g></g><g transform="translate(570.876953125, -8)" class="root"><g class="clusters"><g id="PLAYERS" class="cluster default flowchart-label"><rect height="272" width="374.375" y="8" x="-115.34375" ry="0" rx="0" style=""/><g transform="translate(71.84375, 8)" class="cluster-label"><text style=""><tspan class="row" x="0" dy="1em" xml:space="preserve">1. Player agents · parallel · one LLM call per faction</tspan></text></g></g></g><g class="edgePaths"/><g class="edgeLabels"/><g class="nodes"><g transform="translate(71.84375, 60)" data-id="PUSA" data-node="true" id="flowchart-PUSA-2" class="node default player flowchart-label"><rect height="34" width="74.6484375" y="-17" x="-37.32421875" ry="0" rx="0" style="" class="basic label-container"/><g transform="translate(0, -9.5)" style="" class="label"><rect/><text style=""><tspan class="row" x="0" dy="1em" xml:space="preserve">USA LLM</tspan></text></g></g><g transform="translate(71.84375, 144)" data-id="PPRC" data-node="true" id="flowchart-PPRC-3" class="node default player flowchart-label"><rect height="34" width="75.828125" y="-17" x="-37.9140625" ry="0" rx="0" style="" class="basic label-container"/><g transform="translate(0, -9.5)" style="" class="label"><rect/><text style=""><tspan class="row" x="0" dy="1em" xml:space="preserve">PRC LLM</tspan></text></g></g><g transform="translate(71.84375, 228)" data-id="PROC" data-node="true" id="flowchart-PROC-4" class="node default player flowchart-label"><rect height="34" width="77.6875" y="-17" x="-38.84375" ry="0" rx="0" style="" class="basic label-container"/><g transform="translate(0, -9.5)" style="" class="label"><rect/><text style=""><tspan class="row" x="0" dy="1em" xml:space="preserve">ROC LLM</tspan></text></g></g></g></g><g transform="translate(401.46875, 652)" data-id="SCEN" data-node="true" id="flowchart-SCEN-0" class="node default scen flowchart-label"><rect height="50" width="303.40625" y="-25" x="-151.703125" ry="0" rx="0" style="" class="basic label-container"/><g transform="translate(0, -17.5)" style="" class="label"><rect/><text style=""><tspan class="row" x="0" dy="1em" xml:space="preserve">Scenario · taiwan-2026</tspan><tspan class="row" x="0" dy="1em" xml:space="preserve">factions · regions · capabilities · actions</tspan></text></g></g><g transform="translate(255.1171875, 779)" data-id="W" data-node="true" id="flowchart-W-1" class="node default world flowchart-label"><rect height="66" width="510.234375" y="-33" x="-255.1171875" ry="0" rx="0" style="" class="basic label-container"/><g transform="translate(0, -25.5)" style="" class="label"><rect/><text style=""><tspan class="row" x="0" dy="1em" xml:space="preserve">WorldState (persistent)</tspan><tspan class="row" x="0" dy="1em" xml:space="preserve">turn · escalationLevel · factions { forces, will, readiness, casualties }</tspan><tspan class="row" x="0" dy="1em" xml:space="preserve">regions { tension, incidents } · commonKnowledge[]</tspan></text></g></g><g transform="translate(1026.544921875, 382)" data-id="ADJ" data-node="true" id="flowchart-ADJ-5" class="node default adj flowchart-label"><rect height="82" width="381.6015625" y="-41" x="-190.80078125" ry="0" rx="0" style="" class="basic label-container"/><g transform="translate(0, -33.5)" style="" class="label"><rect/><text style=""><tspan class="row" x="0" dy="1em" xml:space="preserve">2. Adjudicator LLM</tspan><tspan class="row" x="0" dy="1em" xml:space="preserve">generates K outcome candidates · each with</tspan><tspan class="row" x="0" dy="1em" xml:space="preserve">probability · consequentiality · typed state delta ·</tspan><tspan class="row" x="0" dy="1em" xml:space="preserve">capability citations · outcome-kind tags · narrative</tspan></text></g></g><g transform="translate(1026.544921875, 525)" data-id="RNG" data-node="true" id="flowchart-RNG-6" class="node default rng flowchart-label"><rect height="66" width="254.71875" y="-33" x="-127.359375" ry="0" rx="0" style="" class="basic label-container"/><g transform="translate(0, -25.5)" style="" class="label"><rect/><text style=""><tspan class="row" x="0" dy="1em" xml:space="preserve">3. Seeded RNG</tspan><tspan class="row" x="0" dy="1em" xml:space="preserve">weighted sample over candidates</tspan><tspan class="row" x="0" dy="1em" xml:space="preserve">seedrandom(scenario, turn)</tspan></text></g></g><g transform="translate(950.552734375, 652)" data-id="APPLY" data-node="true" id="flowchart-APPLY-7" class="node default io flowchart-label"><rect height="34" width="253.96875" y="-17" x="-126.984375" ry="0" rx="0" style="" class="basic label-container"/><g transform="translate(0, -9.5)" style="" class="label"><rect/><text style=""><tspan class="row" x="0" dy="1em" xml:space="preserve">4. Apply delta → new WorldState</tspan></text></g></g><g transform="translate(786.919921875, 779)" data-id="BRIEF" data-node="true" id="flowchart-BRIEF-8" class="node default io flowchart-label"><rect height="50" width="286.5703125" y="-25" x="-143.28515625" ry="0" rx="0" style="" class="basic label-container"/><g transform="translate(0, -17.5)" style="" class="label"><rect/><text style=""><tspan class="row" x="0" dy="1em" xml:space="preserve">5. Briefer · per-faction visibility filter</tspan><tspan class="row" x="0" dy="1em" xml:space="preserve">→ JSON briefing for next turn</tspan></text></g></g><g transform="translate(1006.451171875, 960.2705612182617)" data-id="LOG" data-node="true" id="flowchart-LOG-9" class="node default log flowchart-label"><path transform="translate(-261.6953125,-79.2705617273538)" d="M 0,20.180374484902522 a 261.6953125,20.180374484902522 0,0,0 523.390625 0 a 261.6953125,20.180374484902522 0,0,0 -523.390625 0 l 0,118.18037448490253 a 261.6953125,20.180374484902522 0,0,0 523.390625 0 l 0,-118.18037448490253" style=""/><g transform="translate(0, -41.5)" style="" class="label"><rect/><text style=""><tspan class="row" x="0" dy="1em" xml:space="preserve">events.jsonl (append-only)</tspan><tspan class="row" x="0" dy="1em" xml:space="preserve">GAME_STARTED · TURN_START · PLAYER_DECISION x3</tspan><tspan class="row" x="0" dy="1em" xml:space="preserve">ACTIONS_SUBMITTED · CANDIDATES_GENERATED · OUTCOME_SELECTED</tspan><tspan class="row" x="0" dy="1em" xml:space="preserve">STATE_SNAPSHOT · BRIEFING_DELIVERED x3</tspan><tspan class="row" x="0" dy="1em" xml:space="preserve">FORK_FROM (forks only) · GAME_COMPLETE</tspan></text></g></g></g></g></g></svg>